REM DIRINDEX 1\2,1\3,1\4,1\5
REM DIRNAME "folder01","folder02","folder03","folder04","folder05"
TITLE ""
FILE "P1Q_t_1488-1497.mp3" MP3
  TRACK 01 AUDIO
    TITLE "0:"
    INDEX 01 00:00:00
  TRACK 02 AUDIO
    TITLE "3:cjc173_5440"
    INDEX 01 00:00:08
  TRACK 03 AUDIO
    TITLE "0:"
    INDEX 01 00:01:23
  TRACK 04 AUDIO
    TITLE "4:cjc173_5441"
    INDEX 01 00:01:45
  TRACK 05 AUDIO
    TITLE "0:"
    INDEX 01 00:03:09
  TRACK 06 AUDIO
    TITLE "5:cjc173_5442"
    INDEX 01 00:03:28
  TRACK 07 AUDIO
    TITLE "0:"
    INDEX 01 00:07:03
  TRACK 08 AUDIO
    TITLE "3:cjc173_5443"
    INDEX 01 00:07:48
  TRACK 09 AUDIO
    TITLE "0:"
    INDEX 01 00:08:53
  TRACK 10 AUDIO
    TITLE "4:cjc173_5444"
    INDEX 01 00:08:74
  TRACK 11 AUDIO
    TITLE "0:"
    INDEX 01 00:11:71
  TRACK 12 AUDIO
    TITLE "5:cjc173_5445"
    INDEX 01 00:12:15
  TRACK 13 AUDIO
    TITLE "0:"
    INDEX 01 00:17:38
  TRACK 14 AUDIO
    TITLE "3:cjc173_5446"
    INDEX 01 00:18:10
  TRACK 15 AUDIO
    TITLE "0:"
    INDEX 01 00:19:12
  TRACK 16 AUDIO
    TITLE "4:cjc173_5447"
    INDEX 01 00:19:31
  TRACK 17 AUDIO
    TITLE "0:"
    INDEX 01 00:23:11
  TRACK 18 AUDIO
    TITLE "5:cjc173_5448"
    INDEX 01 00:23:31
  TRACK 19 AUDIO
    TITLE "0:"
    INDEX 01 00:26:66
  TRACK 20 AUDIO
    TITLE "3:cjc173_5449"
    INDEX 01 00:27:39
  TRACK 21 AUDIO
    TITLE "0:"
    INDEX 01 00:29:06
  TRACK 22 AUDIO
    TITLE "4:cjc173_5450"
    INDEX 01 00:29:26
  TRACK 23 AUDIO
    TITLE "0:"
    INDEX 01 00:30:58
  TRACK 24 AUDIO
    TITLE "5:cjc173_5451"
    INDEX 01 00:31:03
  TRACK 25 AUDIO
    TITLE "0:"
    INDEX 01 00:35:13
  TRACK 26 AUDIO
    TITLE "3:cjc173_5452"
    INDEX 01 00:35:58
  TRACK 27 AUDIO
    TITLE "0:"
    INDEX 01 00:37:15
  TRACK 28 AUDIO
    TITLE "4:cjc173_5453"
    INDEX 01 00:37:37
  TRACK 29 AUDIO
    TITLE "0:"
    INDEX 01 00:40:14
  TRACK 30 AUDIO
    TITLE "5:cjc173_5454"
    INDEX 01 00:40:33
  TRACK 31 AUDIO
    TITLE "0:"
    INDEX 01 00:44:13
  TRACK 32 AUDIO
    TITLE "3:cjc173_5455"
    INDEX 01 00:44:60
  TRACK 33 AUDIO
    TITLE "0:"
    INDEX 01 00:46:01
  TRACK 34 AUDIO
    TITLE "4:cjc173_5456"
    INDEX 01 00:46:22
  TRACK 35 AUDIO
    TITLE "0:"
    INDEX 01 00:50:63
  TRACK 36 AUDIO
    TITLE "5:cjc173_5457"
    INDEX 01 00:51:08
  TRACK 37 AUDIO
    TITLE "0:"
    INDEX 01 00:55:27
  TRACK 38 AUDIO
    TITLE "3:cjc173_5458"
    INDEX 01 00:55:72
  TRACK 39 AUDIO
    TITLE "0:"
    INDEX 01 00:57:32
  TRACK 40 AUDIO
    TITLE "4:cjc173_5459"
    INDEX 01 00:57:51
  TRACK 41 AUDIO
    TITLE "0:"
    INDEX 01 01:01:06
  TRACK 42 AUDIO
    TITLE "5:cjc173_5460"
    INDEX 01 01:01:26
  TRACK 43 AUDIO
    TITLE "0:"
    INDEX 01 01:05:51
  TRACK 44 AUDIO
    TITLE "3:cjc173_5461"
    INDEX 01 01:06:21
  TRACK 45 AUDIO
    TITLE "0:"
    INDEX 01 01:07:36
  TRACK 46 AUDIO
    TITLE "4:cjc173_5462"
    INDEX 01 01:07:60
  TRACK 47 AUDIO
    TITLE "0:"
    INDEX 01 01:11:10
  TRACK 48 AUDIO
    TITLE "5:cjc173_5463"
    INDEX 01 01:11:30
  TRACK 49 AUDIO
    TITLE "0:"
    INDEX 01 01:15:45
  TRACK 50 AUDIO
    TITLE "3:cjc173_5464"
    INDEX 01 01:16:15
  TRACK 51 AUDIO
    TITLE "0:"
    INDEX 01 01:17:42
  TRACK 52 AUDIO
    TITLE "4:cjc173_5465"
    INDEX 01 01:17:62
  TRACK 53 AUDIO
    TITLE "0:"
    INDEX 01 01:20:50
  TRACK 54 AUDIO
    TITLE "5:cjc173_5466"
    INDEX 01 01:20:70
  TRACK 55 AUDIO
    TITLE "0:"
    INDEX 01 01:25:44
  TRACK 56 AUDIO
    TITLE "3:cjc173_5467"
    INDEX 01 01:26:16
  TRACK 57 AUDIO
    TITLE "0:"
    INDEX 01 01:27:49
  TRACK 58 AUDIO
    TITLE "4:cjc173_5468"
    INDEX 01 01:27:68
  TRACK 59 AUDIO
    TITLE "0:"
    INDEX 01 01:30:25
  TRACK 60 AUDIO
    TITLE "5:cjc173_5469"
    INDEX 01 01:30:45
  TRACK 61 AUDIO
    TITLE "0:"
    INDEX 01 01:34:13
